<svg width="1600" height="800" viewBox="0 0 1600 800" fill="none" xmlns="http://www.w3.org/2000/svg">
<mask id="mask0_11_52" style="mask-type:alpha" maskUnits="userSpaceOnUse" x="0" y="0" width="1600" height="800">
<rect width="1600" height="800" fill="white" fill-opacity="0.41"/>
</mask>
<g mask="url(#mask0_11_52)">
<path d="M-78.0952 250.574C-81.8591 230.856 -76.6626 209.601 -63.0719 189.125C-49.4811 168.648 -28.0173 149.735 -1.01871 134.445C25.9799 119.155 57.4779 108.076 90.0438 102.414C122.61 96.7518 154.995 96.724 183.671 102.334C212.347 107.943 236.214 118.975 252.673 134.227C269.131 149.479 277.55 168.367 277.011 188.832C276.473 209.298 266.998 230.557 249.618 250.292C232.239 270.028 207.622 287.484 178.449 300.758C145.057 316.402 115.553 336.753 93.1776 359.575C70.8027 382.397 56.423 406.807 51.6185 430.124C46.814 453.44 51.7707 474.761 65.9439 491.742C80.1172 508.724 102.958 520.709 131.958 526.382C160.958 532.055 194.994 531.196 230.326 523.898C265.658 516.601 300.92 503.148 332.236 485.017C363.552 466.887 389.712 444.781 407.84 421.128C425.968 397.475 435.363 373.191 434.993 350.943C434.623 328.695 444.019 304.41 462.147 280.758C480.275 257.105 506.434 234.998 537.75 216.868C569.067 198.738 604.328 185.285 639.66 177.987C674.993 170.69 709.029 169.831 738.028 175.503C767.028 181.176 789.869 193.162 804.042 210.143C818.216 227.125 823.172 248.445 818.368 271.762C813.563 295.078 799.184 319.489 776.809 342.311C754.434 365.133 724.929 385.484 691.537 401.127C664.095 413.537 641.461 429.925 626.09 448.514C610.72 467.103 603.199 487.184 604.343 506.579C605.488 525.975 615.254 543.944 632.583 558.539C649.911 573.134 674.141 583.798 702.645 589.373C731.149 594.949 762.839 595.225 794.279 590.17C825.719 585.115 855.708 574.922 880.996 560.697C906.284 546.473 925.904 528.759 937.73 509.476C949.556 490.193 953.136 470.078 948.082 451.312C943.027 432.545 946.607 412.43 958.433 393.147C970.259 373.865 989.88 356.151 1015.17 341.926C1040.45 327.701 1070.44 317.509 1101.88 312.454C1133.32 307.399 1165.01 307.674 1193.52 313.25C1222.02 318.826 1246.25 329.489 1263.58 344.084C1280.91 358.679 1290.68 376.649 1291.82 396.044C1292.96 415.439 1285.44 435.52 1270.07 454.109C1254.7 472.699 1232.07 489.086 1204.63 501.496C1186.64 510.487 1174.5 522.484 1169.46 536.242C1164.42 550.001 1166.66 565.019 1175.96 579.737C1185.25 594.456 1201.26 608.339 1222.32 619.944C1243.38 631.55 1268.73 640.456 1295.72 645.737C1322.72 651.018 1350.39 652.482 1375.85 649.978C1401.31 647.473 1423.65 641.09 1440.53 631.492C1457.41 621.895 1468.23 609.432 1471.86 595.397C1475.49 581.363 1471.8 566.268 1461.17 551.681C1450.54 537.093 1446.85 521.998 1450.48 507.964C1454.11 493.929 1464.93 481.466 1481.81 471.869C1498.69 462.271 1521.03 455.888 1546.49 453.384C1571.95 450.879 1599.62 452.343 1626.62 457.624C1653.61 462.905 1678.96 471.811 1700.02 483.417C1721.08 495.022 1737.09 508.905 1746.38 523.624C1755.68 538.342 1757.92 553.36 1752.88 567.119C1747.84 580.877 1735.7 592.874 1717.71 601.865C1699.02 611.033 1686.11 623.274 1680.34 637.31C1674.57 651.346 1676.15 666.663 1684.91 681.664C1693.67 696.665 1709.29 710.801 1730.14 722.597C1750.99 734.393 1776.31 743.416 1803.46 748.727C1830.61 754.038 1858.59 755.441 1884.49 752.791C1910.39 750.14 1933.25 743.533 1950.7 733.658C1968.14 723.783 1979.53 711.002 1983.68 696.647C1987.82 682.293 1984.57 666.892 1974.26 652.049" stroke="#E1E1E1" stroke-width="2"/>
<path d="M-116.847 206.018C-120.61 186.3 -115.414 165.046 -101.823 144.569C-88.2325 124.092 -66.7687 105.179 -39.7701 89.8891C-12.7714 74.5996 18.7265 63.5202 51.2925 57.8581C83.8585 52.1959 116.243 52.1681 144.92 57.7776C173.596 63.3872 197.463 74.4189 213.922 89.6711C230.38 104.923 238.799 123.811 238.26 144.277C237.721 164.742 228.246 186.001 210.867 205.736C193.488 225.472 168.871 242.928 139.698 256.202C106.306 271.846 76.8013 292.197 54.4263 315.019C32.0513 337.841 17.6716 362.251 12.8672 385.568C8.06269 408.884 13.0194 430.205 27.1926 447.186C41.3658 464.168 64.2071 476.153 93.2068 481.826C122.206 487.499 156.242 486.64 191.575 479.342C226.907 472.045 262.168 458.592 293.485 440.462C324.801 422.331 350.96 400.225 369.088 376.572C387.216 352.919 396.612 328.635 396.242 306.387C395.872 284.139 405.267 259.855 423.395 236.202C441.523 212.549 467.683 190.443 498.999 172.312C530.315 154.182 565.577 140.729 600.909 133.432C636.241 126.134 670.277 125.275 699.277 130.947C728.277 136.62 751.118 148.606 765.291 165.588C779.464 182.569 784.421 203.889 779.617 227.206C774.812 250.522 760.432 274.933 738.057 297.755C715.682 320.577 686.178 340.928 652.786 356.571C625.343 368.981 602.71 385.369 587.339 403.958C571.968 422.547 564.448 442.628 565.592 462.023C566.736 481.419 576.502 499.388 593.831 513.983C611.16 528.578 635.39 539.242 663.894 544.817C692.398 550.393 724.088 550.669 755.528 545.614C786.967 540.559 816.957 530.366 842.245 516.141C867.532 501.917 887.153 484.203 898.979 464.92C910.805 445.638 914.385 425.522 909.33 406.756C904.276 387.989 907.856 367.874 919.682 348.591C931.508 329.309 951.128 311.595 976.416 297.37C1001.7 283.145 1031.69 272.953 1063.13 267.898C1094.57 262.843 1126.26 263.118 1154.77 268.694C1183.27 274.27 1207.5 284.934 1224.83 299.528C1242.16 314.123 1251.92 332.093 1253.07 351.488C1254.21 370.883 1246.69 390.964 1231.32 409.553C1215.95 428.143 1193.32 444.531 1165.87 456.94C1147.89 465.931 1135.75 477.928 1130.71 491.687C1125.66 505.445 1127.91 520.463 1137.2 535.181C1146.5 549.9 1162.51 563.783 1183.57 575.388C1204.63 586.994 1229.98 595.9 1256.97 601.181C1283.97 606.462 1311.64 607.926 1337.1 605.422C1362.56 602.917 1384.9 596.534 1401.78 586.937C1418.66 577.339 1429.48 564.876 1433.11 550.841C1436.74 536.807 1433.05 521.712 1422.42 507.125C1411.79 492.537 1408.1 477.443 1411.73 463.408C1415.36 449.373 1426.18 436.91 1443.06 427.313C1459.94 417.715 1482.27 411.333 1507.74 408.828C1533.2 406.323 1560.87 407.787 1587.86 413.068C1614.86 418.349 1640.21 427.255 1661.27 438.861C1682.33 450.467 1698.34 464.349 1707.63 479.068C1716.93 493.787 1719.17 508.804 1714.13 522.563C1709.09 536.321 1696.95 548.318 1678.96 557.309C1660.27 566.478 1647.36 578.718 1641.59 592.754C1635.82 606.79 1637.4 622.107 1646.16 637.108C1654.91 652.11 1670.53 666.245 1691.39 678.041C1712.24 689.837 1737.56 698.861 1764.71 704.171C1791.86 709.482 1819.84 710.886 1845.74 708.235C1871.64 705.584 1894.5 698.977 1911.95 689.102C1929.39 679.227 1940.78 666.446 1944.93 652.092C1949.07 637.737 1945.82 622.336 1935.51 607.494" stroke="#E1E1E1" stroke-width="2"/>
<path d="M-18.0299 349.088C-21.7938 329.371 -16.5973 308.116 -3.00656 287.639C10.5842 267.162 32.048 248.249 59.0466 232.959C86.0452 217.67 117.543 206.59 150.109 200.928C182.675 195.266 215.06 195.238 243.736 200.848C272.412 206.457 296.28 217.489 312.738 232.741C329.197 247.993 337.615 266.881 337.077 287.347C336.538 307.812 327.063 329.071 309.684 348.806C292.304 368.542 267.687 385.998 238.514 399.273C205.122 414.916 175.618 435.267 153.243 458.089C130.868 480.911 116.488 505.321 111.684 528.638C106.879 551.954 111.836 573.275 126.009 590.256C140.182 607.238 163.024 619.224 192.023 624.896C221.023 630.569 255.059 629.71 290.391 622.412C325.724 615.115 360.985 601.662 392.301 583.532C423.618 565.401 449.777 543.295 467.905 519.642C486.033 495.989 495.428 471.705 495.058 449.457C494.689 427.209 504.084 402.925 522.212 379.272C540.34 355.619 566.499 333.513 597.816 315.382C629.132 297.252 664.393 283.799 699.726 276.502C735.058 269.204 769.094 268.345 798.094 274.018C827.093 279.69 849.935 291.676 864.108 308.658C878.281 325.639 883.238 346.959 878.433 370.276C873.629 393.592 859.249 418.003 836.874 440.825C814.499 463.647 784.995 483.998 751.603 499.641C724.16 512.051 701.526 528.439 686.156 547.028C670.785 565.617 663.264 585.698 664.409 605.094C665.553 624.489 675.319 642.458 692.648 657.053C709.977 671.648 734.207 682.312 762.71 687.888C791.214 693.463 822.904 693.739 854.344 688.684C885.784 683.629 915.774 673.436 941.061 659.212C966.349 644.987 985.97 627.273 997.795 607.99C1009.62 588.708 1013.2 568.592 1008.15 549.826C1003.09 531.059 1006.67 510.944 1018.5 491.661C1030.32 472.379 1049.94 454.665 1075.23 440.44C1100.52 426.215 1130.51 416.023 1161.95 410.968C1193.39 405.913 1225.08 406.188 1253.58 411.764C1282.09 417.34 1306.32 428.004 1323.65 442.599C1340.97 457.194 1350.74 475.163 1351.89 494.558C1353.03 513.953 1345.51 534.034 1330.14 552.624C1314.77 571.213 1292.13 587.601 1264.69 600.01C1246.71 609.001 1234.56 620.998 1229.52 634.757C1224.48 648.515 1226.72 663.533 1236.02 678.251C1245.32 692.97 1261.33 706.853 1282.39 718.459C1303.45 730.064 1328.79 738.97 1355.79 744.251C1382.79 749.532 1410.45 750.997 1435.92 748.492C1461.38 745.987 1483.71 739.604 1500.59 730.007C1517.48 720.409 1528.29 707.946 1531.92 693.911C1535.55 679.877 1531.86 664.782 1521.24 650.195C1510.61 635.607 1506.92 620.513 1510.55 606.478C1514.18 592.444 1524.99 579.981 1541.88 570.383C1558.76 560.785 1581.09 554.403 1606.55 551.898C1632.02 549.393 1659.68 550.857 1686.68 556.138C1713.68 561.42 1739.02 570.325 1760.08 581.931C1781.15 593.537 1797.15 607.419 1806.45 622.138C1815.75 636.857 1817.99 651.875 1812.95 665.633C1807.91 679.391 1795.76 691.388 1777.78 700.379C1759.08 709.548 1746.18 721.788 1740.41 735.824C1734.64 749.86 1736.21 765.177 1744.97 780.178C1753.73 795.18 1769.35 809.315 1790.2 821.111C1811.06 832.907 1836.38 841.931 1863.53 847.242C1890.68 852.552 1918.66 853.956 1944.56 851.305C1970.45 848.654 1993.32 842.047 2010.76 832.172C2028.21 822.297 2039.6 809.516 2043.74 795.162C2047.89 780.807 2044.63 765.406 2034.32 750.564" stroke="#E1E1E1" stroke-width="2"/>
<path d="M-52.5185 306.127C-56.2824 286.41 -51.0859 265.155 -37.4951 244.678C-23.9044 224.201 -2.4406 205.288 24.558 189.998C51.5566 174.709 83.0546 163.629 115.621 157.967C148.187 152.305 180.572 152.277 209.248 157.887C237.924 163.496 261.791 174.528 278.25 189.78C294.708 205.033 303.127 223.92 302.588 244.386C302.05 264.851 292.574 286.11 275.195 305.846C257.816 325.581 233.199 343.037 204.026 356.312C170.634 371.955 141.129 392.306 118.754 415.128C96.3794 437.95 81.9997 462.361 77.1952 485.677C72.3908 508.994 77.3474 530.314 91.5207 547.295C105.694 564.277 128.535 576.263 157.535 581.936C186.535 587.608 220.57 586.749 255.903 579.451C291.235 572.154 326.497 558.701 357.813 540.571C389.129 522.44 415.288 500.334 433.417 476.681C451.545 453.028 460.94 428.744 460.57 406.496C460.2 384.248 469.595 359.964 487.723 336.311C505.851 312.658 532.011 290.552 563.327 272.421C594.643 254.291 629.905 240.838 665.237 233.541C700.569 226.243 734.605 225.384 763.605 231.057C792.605 236.73 815.446 248.715 829.619 265.697C843.792 282.678 848.749 303.999 843.945 327.315C839.14 350.632 824.76 375.042 802.385 397.864C780.01 420.686 750.506 441.037 717.114 456.681C689.671 469.09 667.038 485.478 651.667 504.067C636.296 522.656 628.776 542.737 629.92 562.133C631.064 581.528 640.831 599.497 658.159 614.092C675.488 628.687 699.718 639.351 728.222 644.927C756.726 650.503 788.416 650.778 819.856 645.723C851.295 640.668 881.285 630.475 906.573 616.251C931.86 602.026 951.481 584.312 963.307 565.029C975.133 545.747 978.713 525.632 973.658 506.865C968.604 488.098 972.184 467.983 984.01 448.701C995.836 429.418 1015.46 411.704 1040.74 397.479C1066.03 383.255 1096.02 373.062 1127.46 368.007C1158.9 362.952 1190.59 363.227 1219.09 368.803C1247.6 374.379 1271.83 385.043 1289.16 399.638C1306.49 414.233 1316.25 432.202 1317.4 451.597C1318.54 470.993 1311.02 491.074 1295.65 509.663C1280.28 528.252 1257.65 544.64 1230.2 557.049C1212.22 566.04 1200.08 578.037 1195.03 591.796C1189.99 605.554 1192.24 620.572 1201.53 635.291C1210.83 650.009 1226.84 663.892 1247.9 675.498C1268.96 687.103 1294.3 696.009 1321.3 701.29C1348.3 706.572 1375.96 708.036 1401.43 705.531C1426.89 703.026 1449.22 696.643 1466.11 687.046C1482.99 677.448 1493.81 664.985 1497.44 650.951C1501.06 636.916 1497.37 621.822 1486.75 607.234C1476.12 592.646 1472.43 577.552 1476.06 563.517C1479.69 549.483 1490.51 537.02 1507.39 527.422C1524.27 517.824 1546.6 511.442 1572.07 508.937C1597.53 506.432 1625.2 507.896 1652.19 513.177C1679.19 518.459 1704.53 527.364 1725.6 538.97C1746.66 550.576 1762.67 564.459 1771.96 579.177C1781.26 593.896 1783.5 608.914 1778.46 622.672C1773.42 636.43 1761.27 648.428 1743.29 657.418C1724.6 666.587 1711.69 678.827 1705.92 692.863C1700.15 706.899 1701.72 722.216 1710.48 737.218C1719.24 752.219 1734.86 766.354 1755.71 778.15C1776.57 789.946 1801.89 798.97 1829.04 804.281C1856.19 809.592 1884.17 810.995 1910.07 808.344C1935.97 805.694 1958.83 799.086 1976.28 789.211C1993.72 779.336 2005.11 766.555 2009.25 752.201C2013.4 737.847 2010.15 722.445 1999.84 707.603" stroke="#E1E1E1" stroke-width="2"/>
</g>
</svg>
