<svg width="390" height="800" viewBox="0 0 390 800" fill="none" xmlns="http://www.w3.org/2000/svg">
<mask id="mask0_15_89" style="mask-type:alpha" maskUnits="userSpaceOnUse" x="0" y="0" width="390" height="800">
<rect width="390" height="800" fill="white" fill-opacity="0.41"/>
</mask>
<g mask="url(#mask0_15_89)">
<path d="M-38.8524 187.574C-40.7249 167.856 -38.1397 146.601 -31.3783 126.125C-24.6169 105.648 -13.9386 86.7345 -0.506836 71.445C12.925 56.1554 28.5952 45.0761 44.7968 39.4139C60.9983 33.7518 77.1099 33.7239 91.3762 39.3335C105.643 44.943 117.517 55.9748 125.705 71.227C133.893 86.4792 138.081 105.367 137.813 125.832C137.545 146.298 132.831 167.557 124.185 187.292C115.539 207.028 103.292 224.484 88.7783 237.758C72.1658 253.402 57.4874 273.753 46.3558 296.575C35.2243 319.397 28.0704 343.807 25.6802 367.124C23.2899 390.44 25.7559 411.761 32.8071 428.742C39.8583 445.724 51.2218 457.709 65.6491 463.382C80.0765 469.055 97.0093 468.196 114.587 460.898C132.165 453.601 149.708 440.148 165.287 422.017C180.867 403.887 193.882 381.781 202.9 358.128C211.919 334.475 216.593 310.191 216.409 287.943C216.225 265.695 220.899 241.41 229.918 217.757C238.937 194.105 251.951 171.998 267.531 153.868C283.111 135.738 300.653 122.285 318.231 114.987C335.809 107.69 352.742 106.831 367.169 112.503C381.596 118.176 392.96 130.162 400.011 147.143C407.062 164.125 409.528 185.445 407.138 208.762C404.748 232.078 397.594 256.489 386.462 279.311C375.331 302.133 360.652 322.484 344.04 338.127C330.387 350.537 319.127 366.925 311.48 385.514C303.833 404.103 300.091 424.184 300.661 443.579C301.23 462.975 306.089 480.944 314.71 495.539C323.331 510.134 335.385 520.798 349.566 526.373C363.747 531.949 379.512 532.225 395.154 527.17C410.795 522.115 425.715 511.922 438.295 497.697C450.876 483.473 460.637 465.759 466.521 446.476C472.404 427.193 474.185 407.078 471.671 388.312C469.156 369.545 470.937 349.43 476.82 330.147C482.704 310.865 492.465 293.151 505.046 278.926C517.626 264.701 532.546 254.509 548.187 249.454C563.829 244.399 579.594 244.674 593.775 250.25C607.956 255.826 620.01 266.489 628.631 281.084C637.252 295.679 642.111 313.649 642.68 333.044C643.25 352.439 639.508 372.52 631.861 391.109C624.214 409.699 612.954 426.086 599.301 438.496C590.354 447.487 584.313 459.484 581.805 473.242C579.297 487.001 580.413 502.019 585.038 516.737C589.662 531.456 597.627 545.339 608.105 556.944C618.582 568.55 631.191 577.456 644.623 582.737C658.054 588.018 671.818 589.482 684.486 586.978C697.154 584.473 708.264 578.09 716.663 568.492C725.062 558.895 730.444 546.432 732.249 532.397C734.055 518.363 732.219 503.268 726.932 488.681C721.645 474.093 719.809 458.998 721.614 444.964C723.42 430.929 728.802 418.466 737.201 408.869C745.6 399.271 756.71 392.888 769.378 390.384C782.046 387.879 795.81 389.343 809.241 394.624C822.673 399.905 835.282 408.811 845.759 420.417C856.237 432.022 864.202 445.905 868.826 460.624C873.451 475.342 874.567 490.36 872.059 504.119C869.551 517.877 863.51 529.874 854.563 538.865C845.262 548.033 838.841 560.274 835.97 574.31C833.099 588.346 833.884 603.663 838.241 618.664C842.598 633.665 850.369 647.801 860.744 659.597C871.118 671.393 883.715 680.416 897.222 685.727C910.729 691.038 924.65 692.441 937.534 689.791C950.418 687.14 961.793 680.533 970.473 670.658C979.152 660.783 984.818 648.002 986.879 633.647C988.941 619.293 987.323 603.892 982.193 589.049" stroke="#E1E1E1" stroke-width="2"/>
<path d="M-58.1311 143.018C-60.0037 123.301 -57.4184 102.046 -50.657 81.5689C-43.8956 61.0921 -33.2174 42.1787 -19.7856 26.8892C-6.35378 11.5996 9.31645 0.520304 25.518 -5.14186C41.7196 -10.804 57.8311 -10.8318 72.0975 -5.22231C86.3638 0.387221 98.2378 11.419 106.426 26.6712C114.614 41.9234 118.802 60.8111 118.534 81.2766C118.266 101.742 113.553 123.001 104.906 142.736C96.2602 162.472 84.0132 179.928 69.4996 193.203C52.8871 208.846 38.2086 229.197 27.0771 252.019C15.9455 274.841 8.79165 299.251 6.40143 322.568C4.0112 345.884 6.47714 367.205 13.5283 384.186C20.5795 401.168 31.9431 413.154 46.3704 418.826C60.7977 424.499 77.7306 423.64 95.3084 416.342C112.886 409.045 130.429 395.592 146.009 377.462C161.589 359.331 174.603 337.225 183.622 313.572C192.64 289.919 197.314 265.635 197.13 243.387C196.946 221.139 201.62 196.855 210.639 173.202C219.658 149.549 232.672 127.443 248.252 109.312C263.832 91.182 281.374 77.7291 298.952 70.4317C316.53 63.1342 333.463 62.2747 347.89 67.9476C362.318 73.6204 373.681 85.606 380.732 102.588C387.783 119.569 390.249 140.889 387.859 164.206C385.469 187.522 378.315 211.933 367.184 234.755C356.052 257.577 341.374 277.928 324.761 293.571C311.108 305.981 299.848 322.369 292.201 340.958C284.554 359.547 280.813 379.628 281.382 399.024C281.951 418.419 286.81 436.388 295.431 450.983C304.052 465.578 316.106 476.242 330.287 481.818C344.468 487.393 360.234 487.669 375.875 482.614C391.516 477.559 406.436 467.366 419.017 453.142C431.597 438.917 441.359 421.203 447.242 401.92C453.125 382.638 454.906 362.522 452.392 343.756C449.877 324.989 451.658 304.874 457.542 285.591C463.425 266.309 473.186 248.595 485.767 234.37C498.347 220.145 513.267 209.953 528.909 204.898C544.55 199.843 560.316 200.118 574.496 205.694C588.677 211.27 600.732 221.934 609.353 236.529C617.974 251.124 622.832 269.093 623.402 288.488C623.971 307.883 620.229 327.964 612.582 346.554C604.936 365.143 593.675 381.531 580.023 393.94C571.076 402.931 565.034 414.928 562.526 428.687C560.018 442.445 561.134 457.463 565.759 472.182C570.383 486.9 578.348 500.783 588.826 512.389C599.304 523.994 611.913 532.9 625.344 538.181C638.775 543.462 652.539 544.927 665.207 542.422C677.875 539.917 688.985 533.534 697.384 523.937C705.783 514.339 711.165 501.876 712.971 487.841C714.776 473.807 712.94 458.712 707.653 444.125C702.366 429.537 700.53 414.443 702.336 400.408C704.141 386.374 709.523 373.911 717.922 364.313C726.321 354.715 737.431 348.333 750.099 345.828C762.767 343.323 776.531 344.787 789.963 350.068C803.394 355.35 816.003 364.255 826.481 375.861C836.958 387.467 844.923 401.349 849.548 416.068C854.172 430.787 855.289 445.805 852.78 459.563C850.272 473.321 844.231 485.318 835.284 494.309C825.983 503.478 819.562 515.718 816.691 529.754C813.821 543.79 814.605 559.107 818.962 574.108C823.32 589.11 831.091 603.245 841.465 615.041C851.839 626.837 864.436 635.861 877.943 641.172C891.45 646.482 905.371 647.886 918.255 645.235C931.139 642.585 942.514 635.977 951.194 626.102C959.873 616.227 965.539 603.446 967.601 589.092C969.662 574.737 968.044 559.336 962.915 544.494" stroke="#E1E1E1" stroke-width="2"/>
<path d="M-8.96989 286.088C-10.8424 266.371 -8.25718 245.116 -1.49577 224.639C5.26563 204.162 15.9439 185.249 29.3757 169.959C42.8075 154.67 58.4777 143.59 74.6793 137.928C90.8809 132.266 106.992 132.238 121.259 137.848C135.525 143.457 147.399 154.489 155.587 169.741C163.775 184.993 167.964 203.881 167.696 224.347C167.428 244.812 162.714 266.071 154.068 285.806C145.421 305.542 133.174 322.998 118.661 336.272C102.048 351.916 87.3699 372.267 76.2383 395.089C65.1068 417.911 57.9529 442.321 55.5627 465.638C53.1725 488.954 55.6384 510.275 62.6896 527.256C69.7408 544.238 81.1043 556.224 95.5316 561.896C109.959 567.569 126.892 566.71 144.47 559.412C162.047 552.115 179.59 538.662 195.17 520.532C210.75 502.401 223.764 480.295 232.783 456.642C241.801 432.989 246.476 408.705 246.292 386.457C246.108 364.209 250.782 339.925 259.8 316.272C268.819 292.619 281.833 270.513 297.413 252.382C312.993 234.252 330.536 220.799 348.114 213.502C365.691 206.204 382.624 205.345 397.051 211.017C411.479 216.69 422.842 228.676 429.894 245.658C436.945 262.639 439.411 283.959 437.02 307.276C434.63 330.592 427.476 355.003 416.345 377.825C405.213 400.647 390.535 420.998 373.922 436.641C360.27 449.051 349.009 465.439 341.362 484.028C333.716 502.617 329.974 522.698 330.543 542.094C331.113 561.489 335.971 579.458 344.592 594.053C353.213 608.648 365.268 619.312 379.448 624.888C393.629 630.463 409.395 630.739 425.036 625.684C440.677 620.629 455.597 610.436 468.178 596.212C480.759 581.987 490.52 564.273 496.403 544.99C502.287 525.708 504.068 505.592 501.553 486.826C499.039 468.059 500.82 447.944 506.703 428.661C512.586 409.379 522.348 391.665 534.928 377.44C547.509 363.215 562.429 353.023 578.07 347.968C593.711 342.913 609.477 343.188 623.658 348.764C637.838 354.34 649.893 365.004 658.514 379.599C667.135 394.193 671.993 412.163 672.563 431.558C673.132 450.953 669.391 471.034 661.744 489.624C654.097 508.213 642.836 524.601 629.184 537.01C620.237 546.001 614.196 557.998 611.687 571.757C609.179 585.515 610.295 600.533 614.92 615.251C619.545 629.97 627.509 643.853 637.987 655.459C648.465 667.064 661.074 675.97 674.505 681.251C687.936 686.532 701.7 687.997 714.368 685.492C727.036 682.987 738.146 676.604 746.545 667.007C754.944 657.409 760.326 644.946 762.132 630.911C763.938 616.877 762.102 601.782 756.814 587.195C751.527 572.607 749.691 557.513 751.497 543.478C753.303 529.443 758.684 516.98 767.083 507.383C775.482 497.785 786.593 491.403 799.261 488.898C811.929 486.393 825.693 487.857 839.124 493.138C852.555 498.419 865.164 507.325 875.642 518.931C886.12 530.537 894.084 544.419 898.709 559.138C903.334 573.857 904.45 588.875 901.942 602.633C899.433 616.391 893.392 628.388 884.445 637.379C875.144 646.548 868.724 658.788 865.853 672.824C862.982 686.86 863.766 702.177 868.123 717.178C872.481 732.18 880.252 746.315 890.626 758.111C901 769.907 913.598 778.931 927.104 784.242C940.611 789.552 954.532 790.956 967.417 788.305C980.301 785.654 991.676 779.047 1000.36 769.172C1009.03 759.297 1014.7 746.516 1016.76 732.162C1018.82 717.807 1017.21 702.406 1012.08 687.564" stroke="#E1E1E1" stroke-width="2"/>
<path d="M-26.128 243.127C-28.0005 223.41 -25.4153 202.155 -18.6539 181.678C-11.8925 161.201 -1.21422 142.288 12.2176 126.998C25.6494 111.709 41.3196 100.629 57.5212 94.9673C73.7228 89.3051 89.8343 89.2773 104.101 94.8868C118.367 100.496 130.241 111.528 138.429 126.78C146.617 142.033 150.805 160.92 150.538 181.386C150.27 201.851 145.556 223.11 136.91 242.846C128.263 262.581 116.016 280.037 101.503 293.312C84.8902 308.955 70.2118 329.306 59.0803 352.128C47.9487 374.95 40.7948 399.361 38.4046 422.677C36.0144 445.994 38.4803 467.314 45.5315 484.295C52.5827 501.277 63.9462 513.263 78.3736 518.936C92.8009 524.608 109.734 523.749 127.312 516.451C144.889 509.154 162.432 495.701 178.012 477.571C193.592 459.44 206.606 437.334 215.625 413.681C224.643 390.028 229.317 365.744 229.133 343.496C228.949 321.248 233.624 296.964 242.642 273.311C251.661 249.658 264.675 227.552 280.255 209.421C295.835 191.291 313.378 177.838 330.955 170.541C348.533 163.243 365.466 162.384 379.893 168.057C394.321 173.73 405.684 185.715 412.735 202.697C419.787 219.678 422.253 240.999 419.862 264.315C417.472 287.632 410.318 312.042 399.187 334.864C388.055 357.686 373.377 378.037 356.764 393.681C343.111 406.09 331.851 422.478 324.204 441.067C316.557 459.656 312.816 479.737 313.385 499.133C313.955 518.528 318.813 536.497 327.434 551.092C336.055 565.687 348.11 576.351 362.29 581.927C376.471 587.503 392.237 587.778 407.878 582.723C423.519 577.668 438.439 567.475 451.02 553.251C463.6 539.026 473.362 521.312 479.245 502.029C485.128 482.747 486.909 462.632 484.395 443.865C481.88 425.098 483.661 404.983 489.545 385.701C495.428 366.418 505.189 348.704 517.77 334.479C530.351 320.255 545.271 310.062 560.912 305.007C576.553 299.952 592.319 300.227 606.5 305.803C620.68 311.379 632.735 322.043 641.356 336.638C649.977 351.233 654.835 369.202 655.405 388.597C655.974 407.993 652.232 428.074 644.586 446.663C636.939 465.252 625.678 481.64 612.026 494.049C603.079 503.04 597.038 515.037 594.529 528.796C592.021 542.554 593.137 557.572 597.762 572.291C602.387 587.009 610.351 600.892 620.829 612.498C631.307 624.103 643.916 633.009 657.347 638.29C670.778 643.572 684.542 645.036 697.21 642.531C709.878 640.026 720.988 633.643 729.387 624.046C737.786 614.448 743.168 601.985 744.974 587.951C746.78 573.916 744.944 558.821 739.656 544.234C734.369 529.646 732.533 514.552 734.339 500.517C736.145 486.483 741.526 474.02 749.925 464.422C758.324 454.824 769.435 448.442 782.102 445.937C794.77 443.432 808.535 444.896 821.966 450.177C835.397 455.459 848.006 464.364 858.484 475.97C868.962 487.576 876.926 501.459 881.551 516.177C886.176 530.896 887.292 545.914 884.783 559.672C882.275 573.43 876.234 585.428 867.287 594.418C857.986 603.587 851.565 615.827 848.695 629.863C845.824 643.899 846.608 659.216 850.965 674.218C855.323 689.219 863.094 703.354 873.468 715.15C883.842 726.946 896.44 735.97 909.946 741.281C923.453 746.592 937.374 747.995 950.258 745.344C963.143 742.694 974.518 736.086 983.197 726.211C991.876 716.336 997.542 703.555 999.604 689.201C1001.67 674.847 1000.05 659.445 994.918 644.603" stroke="#E1E1E1" stroke-width="2"/>
</g>
</svg>
